<svg xmlns="http://www.w3.org/2000/svg" width="1600" height="896" viewBox="0 0 1000 560" role="img" aria-label="Stylized CDMX map background">
  <defs>
    <linearGradient id="paper" x1="0" x2="1" y1="0" y2="1">
      <stop offset="0" stop-color="#f9fbf7"/>
      <stop offset="0.56" stop-color="#f2f6ef"/>
      <stop offset="1" stop-color="#edf4ea"/>
    </linearGradient>
    <pattern id="smallGrid" width="42" height="42" patternUnits="userSpaceOnUse">
      <path d="M 42 0 L 0 0 0 42" fill="none" stroke="#d9e1dc" stroke-width="1.1" opacity="0.7"/>
    </pattern>
    <pattern id="diagonalGrid" width="118" height="96" patternUnits="userSpaceOnUse">
      <path d="M-20 86 L118 -8 M18 108 L152 10" fill="none" stroke="#cbd6d0" stroke-width="2" opacity="0.42"/>
      <path d="M0 20 L120 72" fill="none" stroke="#d7dfda" stroke-width="1.4" opacity="0.34"/>
    </pattern>
    <filter id="softShadow" x="-20%" y="-20%" width="140%" height="140%">
      <feDropShadow dx="0" dy="5" stdDeviation="5" flood-color="#071a2c" flood-opacity="0.09"/>
    </filter>
  </defs>

  <rect width="1000" height="560" fill="url(#paper)"/>
  <rect width="1000" height="560" fill="url(#smallGrid)" opacity="0.72"/>
  <rect width="1000" height="560" fill="url(#diagonalGrid)" opacity="0.62"/>

  <path d="M0 318 C84 286 135 267 212 286 C302 309 386 309 478 274 C596 231 710 198 1000 181 L1000 560 L0 560 Z" fill="#e6f1df" opacity="0.72"/>
  <path d="M0 352 C130 316 222 326 336 338 C457 351 556 312 685 278 C792 249 887 242 1000 240" fill="none" stroke="#d7e7ce" stroke-width="46" opacity="0.65"/>
  <path d="M-20 410 C80 370 178 360 285 379 C400 400 493 366 615 318 C742 268 866 270 1030 260" fill="none" stroke="#cce0c2" stroke-width="24" opacity="0.72"/>

  <path d="M70 342 C116 360 160 361 225 346" fill="none" stroke="#8eb4cb" stroke-width="15" opacity="0.54" stroke-linecap="round"/>
  <path d="M98 367 C135 378 176 378 227 365" fill="none" stroke="#9cc4d7" stroke-width="9" opacity="0.5" stroke-linecap="round"/>
  <ellipse cx="92" cy="357" rx="70" ry="36" fill="#d7f1e7" opacity="0.64"/>

  <g fill="none" stroke-linecap="round">
    <path d="M-40 248 C130 239 248 237 380 253 C536 272 690 246 1040 215" stroke="#c8d3cf" stroke-width="11" opacity="0.72"/>
    <path d="M-20 300 C110 301 237 319 380 315 C555 311 712 273 1040 250" stroke="#ccd8d2" stroke-width="8" opacity="0.68"/>
    <path d="M70 110 C198 168 273 191 382 213 C523 241 674 231 956 205" stroke="#c4d0cb" stroke-width="8" opacity="0.68"/>
    <path d="M115 30 L180 560" stroke="#cdd7d4" stroke-width="7" opacity="0.55"/>
    <path d="M280 -40 L320 560" stroke="#d1dad6" stroke-width="7" opacity="0.5"/>
    <path d="M520 -30 L482 560" stroke="#c8d3cf" stroke-width="8" opacity="0.54"/>
    <path d="M715 -30 L690 560" stroke="#d0dad6" stroke-width="7" opacity="0.52"/>
    <path d="M888 -20 L850 560" stroke="#c7d3ce" stroke-width="7" opacity="0.54"/>
  </g>

  <g fill="none" stroke="#e3e9e6" stroke-width="3.2" opacity="0.82">
    <path d="M15 70 H950"/>
    <path d="M20 132 H975"/>
    <path d="M12 196 H948"/>
    <path d="M28 376 H965"/>
    <path d="M18 442 H974"/>
    <path d="M55 510 H945"/>
    <path d="M210 0 V560"/>
    <path d="M404 0 V560"/>
    <path d="M603 0 V560"/>
    <path d="M798 0 V560"/>
  </g>

  <g fill="none" stroke="#d5ded9" stroke-width="2.5" opacity="0.78">
    <path d="M26 28 L358 206"/>
    <path d="M90 0 L494 260"/>
    <path d="M490 12 L992 178"/>
    <path d="M438 548 L1000 342"/>
    <path d="M8 484 L386 324"/>
    <path d="M646 0 L1000 118"/>
    <path d="M610 560 L1000 420"/>
  </g>

  <g fill="#6f7f88" font-family="Arial, Helvetica, sans-serif" font-size="17" font-weight="700" letter-spacing="1.4" opacity="0.62">
    <text x="58" y="118">POLANCO</text>
    <text x="34" y="250">CHAPULTEPEC</text>
    <text x="456" y="372">ROMA NTE.</text>
    <text x="802" y="126">CENTRO</text>
    <text x="755" y="392">DOCTORES</text>
    <text x="230" y="38">GRANADA</text>
  </g>

  <g fill="#66a939" font-family="Arial, Helvetica, sans-serif" font-size="17" font-weight="700" opacity="0.68">
    <text x="72" y="393">Bosque de Chapultepec</text>
    <text x="120" y="447">Parque Mexico</text>
  </g>

  <g filter="url(#softShadow)">
    <circle cx="520" cy="300" r="10" fill="#fdfefe" stroke="#8da0aa" stroke-width="3"/>
    <circle cx="870" cy="240" r="9" fill="#fdfefe" stroke="#8da0aa" stroke-width="3"/>
    <circle cx="680" cy="175" r="9" fill="#fdfefe" stroke="#8da0aa" stroke-width="3"/>
    <circle cx="150" cy="250" r="9" fill="#fdfefe" stroke="#8da0aa" stroke-width="3"/>
    <circle cx="245" cy="305" r="9" fill="#fdfefe" stroke="#8da0aa" stroke-width="3"/>
    <circle cx="430" cy="455" r="9" fill="#fdfefe" stroke="#8da0aa" stroke-width="3"/>
  </g>

  <g opacity="0.56">
    <rect x="577" y="336" width="20" height="20" rx="4" fill="#f3813a"/>
    <path d="M583 341 h8 M583 346 h8 M583 351 h8" stroke="#fff" stroke-width="2"/>
    <rect x="862" y="108" width="20" height="20" rx="4" fill="#f3813a"/>
    <path d="M868 113 h8 M868 118 h8 M868 123 h8" stroke="#fff" stroke-width="2"/>
    <circle cx="804" cy="155" r="13" fill="#4ea5df"/>
    <path d="M797 155 h14 M804 148 v14" stroke="#fff" stroke-width="3"/>
  </g>
</svg>
